<?xml version="1.0" standalone="no"?>
<svg xmlns:xlink="http://www.w3.org/1999/xlink" id="wave" style="transform:rotate(180deg); transition: 0.3s" viewBox="0 0 1440 140" version="1.1" xmlns="http://www.w3.org/2000/svg"><defs><linearGradient id="sw-gradient-0" x1="0" x2="0" y1="1" y2="0"><stop stop-color="rgba(255, 249, 234, 1)" offset="0%"/><stop stop-color="rgba(255, 249, 234, 1)" offset="100%"/></linearGradient></defs><path style="transform:translate(0, 0px); opacity:1" fill="url(#sw-gradient-0)" d="M0,98L26.7,81.7C53.3,65,107,33,160,35C213.3,37,267,75,320,91C373.3,107,427,103,480,95.7C533.3,89,587,79,640,70C693.3,61,747,51,800,58.3C853.3,65,907,89,960,86.3C1013.3,84,1067,56,1120,58.3C1173.3,61,1227,93,1280,102.7C1333.3,112,1387,98,1440,79.3C1493.3,61,1547,37,1600,35C1653.3,33,1707,51,1760,63C1813.3,75,1867,79,1920,81.7C1973.3,84,2027,84,2080,81.7C2133.3,79,2187,75,2240,67.7C2293.3,61,2347,51,2400,51.3C2453.3,51,2507,61,2560,72.3C2613.3,84,2667,98,2720,86.3C2773.3,75,2827,37,2880,37.3C2933.3,37,2987,75,3040,79.3C3093.3,84,3147,56,3200,42C3253.3,28,3307,28,3360,32.7C3413.3,37,3467,47,3520,51.3C3573.3,56,3627,56,3680,49C3733.3,42,3787,28,3813,21L3840,14L3840,140L3813.3,140C3786.7,140,3733,140,3680,140C3626.7,140,3573,140,3520,140C3466.7,140,3413,140,3360,140C3306.7,140,3253,140,3200,140C3146.7,140,3093,140,3040,140C2986.7,140,2933,140,2880,140C2826.7,140,2773,140,2720,140C2666.7,140,2613,140,2560,140C2506.7,140,2453,140,2400,140C2346.7,140,2293,140,2240,140C2186.7,140,2133,140,2080,140C2026.7,140,1973,140,1920,140C1866.7,140,1813,140,1760,140C1706.7,140,1653,140,1600,140C1546.7,140,1493,140,1440,140C1386.7,140,1333,140,1280,140C1226.7,140,1173,140,1120,140C1066.7,140,1013,140,960,140C906.7,140,853,140,800,140C746.7,140,693,140,640,140C586.7,140,533,140,480,140C426.7,140,373,140,320,140C266.7,140,213,140,160,140C106.7,140,53,140,27,140L0,140Z"/></svg>